<svg width="19" height="14" viewBox="0 0 19 14" fill="none" xmlns="http://www.w3.org/2000/svg">
<path d="M16.6805 0.538452H2.3234C1.0418 0.538452 0 1.46956 0 2.615V11.385C0 12.5304 1.0418 13.4615 2.3234 13.4615H16.6766C17.9582 13.4615 19 12.5304 19 11.385V2.61851C19.0039 1.47307 17.9621 0.538452 16.6805 0.538452ZM17.9425 11.385C17.9425 12.0069 17.3764 12.5129 16.6805 12.5129H2.3234C1.62756 12.5129 1.06145 12.0069 1.06145 11.385V2.61851C1.06145 1.9966 1.62756 1.49064 2.3234 1.49064H16.6766C17.3724 1.49064 17.9385 1.9966 17.9385 2.61851V11.385H17.9425Z" fill="#00B2FF"/>
<path d="M11.9827 6.89101L16.6295 3.16658C16.8457 2.9909 16.8654 2.69224 16.6688 2.49548C16.4723 2.30223 16.1381 2.28466 15.9179 2.46034L9.50992 7.60076L8.25977 6.6029C8.25584 6.59938 8.2519 6.59587 8.2519 6.59236C8.22439 6.56776 8.19687 6.54668 8.16542 6.5256L3.07831 2.45683C2.85816 2.28115 2.524 2.29872 2.32743 2.49548C2.13087 2.69224 2.15052 2.9909 2.37068 3.16658L7.07251 6.92264L2.39033 10.8403C2.17804 11.0195 2.16625 11.3182 2.36674 11.5114C2.47289 11.6098 2.61442 11.6625 2.75594 11.6625C2.88568 11.6625 3.01541 11.6203 3.11762 11.536L7.87057 7.56211L9.16004 8.5916C9.26225 8.67242 9.38805 8.71107 9.51385 8.71107C9.63965 8.71107 9.76939 8.6689 9.86767 8.58809L11.1925 7.52698L15.9179 11.5395C16.0202 11.6274 16.1538 11.6695 16.2836 11.6695C16.4251 11.6695 16.5627 11.6203 16.6688 11.522C16.8693 11.3322 16.8615 11.0301 16.6492 10.8509L11.9827 6.89101Z" fill="#00B2FF"/>
</svg>
