<svg width="18" height="18" viewBox="0 0 18 18" fill="none" xmlns="http://www.w3.org/2000/svg">
<path d="M14.2333 10.9849C13.8642 10.6307 13.4191 10.4413 12.9473 10.4413C12.4794 10.4413 12.0304 10.6272 11.6462 10.9814L10.4439 12.086C10.345 12.0369 10.2461 11.9913 10.151 11.9458C10.014 11.8826 9.88467 11.823 9.77433 11.7599C8.64819 11.1006 7.62476 10.2415 6.64319 9.1298C6.16762 8.57573 5.84804 8.10932 5.61596 7.63591C5.92793 7.3729 6.21708 7.09937 6.49861 6.83636C6.60514 6.73817 6.71167 6.63647 6.8182 6.53828C7.61715 5.80186 7.61715 4.84801 6.8182 4.11158L5.77955 3.15423C5.66161 3.04552 5.53987 2.9333 5.42573 2.82108C5.19746 2.60366 4.95777 2.37923 4.71047 2.16882C4.34143 1.83217 3.9001 1.65332 3.43595 1.65332C2.97179 1.65332 2.52286 1.83217 2.1424 2.16882C2.1386 2.17233 2.1386 2.17233 2.13479 2.17583L0.841243 3.37866C0.35426 3.82753 0.076528 4.37459 0.0156552 5.00932C-0.0756541 6.0333 0.251537 6.98715 0.502638 7.61136C1.11898 9.14383 2.03968 10.5641 3.41312 12.086C5.07952 13.9201 7.08452 15.3684 9.37486 16.3889C10.2499 16.7711 11.4179 17.2235 12.7229 17.3006C12.8028 17.3041 12.8865 17.3076 12.9626 17.3076C13.8414 17.3076 14.5795 17.0166 15.1578 16.438C15.1616 16.4309 15.1692 16.4274 15.173 16.4204C15.3708 16.1995 15.5991 15.9996 15.8388 15.7857C16.0024 15.6419 16.1698 15.4911 16.3334 15.3333C16.71 14.9721 16.9079 14.5513 16.9079 14.12C16.9079 13.6851 16.7062 13.2678 16.322 12.9171L14.2333 10.9849ZM15.5953 14.6775C15.5915 14.6775 15.5915 14.6811 15.5953 14.6775C15.4469 14.8248 15.2947 14.9581 15.1311 15.1054C14.8838 15.3228 14.6327 15.5507 14.3969 15.8067C14.0126 16.1855 13.5599 16.3643 12.9664 16.3643C12.9093 16.3643 12.8484 16.3643 12.7913 16.3608C11.6614 16.2942 10.6113 15.8874 9.82379 15.5402C7.67042 14.5794 5.77955 13.2152 4.20827 11.4864C2.91092 10.0451 2.04348 8.71249 1.46899 7.28172C1.11517 6.40853 0.985816 5.72821 1.04288 5.08647C1.08093 4.67618 1.25214 4.33602 1.56791 4.04495L2.86527 2.84914C3.05169 2.68782 3.24953 2.60015 3.44356 2.60015C3.68324 2.60015 3.87728 2.73341 3.99902 2.84563C4.00283 2.84914 4.00663 2.85264 4.01044 2.85615C4.24251 3.05604 4.46318 3.26294 4.69526 3.48387C4.8132 3.59608 4.93494 3.7083 5.05669 3.82402L6.09533 4.78138C6.49861 5.1531 6.49861 5.49676 6.09533 5.86848C5.985 5.97018 5.87847 6.07188 5.76814 6.17007C5.44856 6.47165 5.14419 6.7522 4.8132 7.02573C4.80559 7.03274 4.79798 7.03625 4.79417 7.04326C4.46698 7.34484 4.52786 7.63941 4.59634 7.8393C4.60014 7.84982 4.60395 7.86034 4.60775 7.87086C4.87787 8.47403 5.25833 9.04213 5.83662 9.71894L5.84043 9.72245C6.89048 10.9148 7.99761 11.8441 9.21887 12.5559C9.37486 12.6471 9.53465 12.7208 9.68683 12.7909C9.82379 12.854 9.95315 12.9136 10.0635 12.9768C10.0787 12.9838 10.0939 12.9943 10.1091 13.0013C10.2385 13.0609 10.3602 13.089 10.4858 13.089C10.8016 13.089 10.9994 12.9066 11.0641 12.847L12.3652 11.6477C12.4946 11.5284 12.7 11.3847 12.9397 11.3847C13.1756 11.3847 13.3696 11.5214 13.4876 11.6407C13.4914 11.6442 13.4914 11.6442 13.4952 11.6477L15.5915 13.5799C15.9834 13.9376 15.9834 14.3058 15.5953 14.6775Z" fill="#00B2FF"/>
<path d="M9.72843 4.64459C10.7252 4.79889 11.6307 5.23373 12.3536 5.90002C13.0764 6.56631 13.5444 7.40093 13.7156 8.31971C13.7575 8.55115 13.9743 8.71247 14.2216 8.71247C14.252 8.71247 14.2787 8.70896 14.3091 8.70545C14.5907 8.66337 14.7771 8.4179 14.7314 8.15839C14.526 7.04674 13.9553 6.03328 13.0841 5.23022C12.2128 4.42717 11.1133 3.90115 9.90725 3.71178C9.62571 3.6697 9.3632 3.84153 9.31374 4.09753C9.26428 4.35353 9.4469 4.60251 9.72843 4.64459Z" fill="#00B2FF"/>
<path d="M17.9921 8.02166C17.6535 6.19111 16.7176 4.52539 15.2795 3.19982C13.8414 1.87425 12.0342 1.01158 10.0482 0.699478C9.77051 0.65389 9.50799 0.82923 9.45853 1.08523C9.41288 1.34473 9.5993 1.5867 9.88084 1.63228C11.6538 1.90932 13.2707 2.68432 14.5566 3.86611C15.8426 5.05141 16.6796 6.54179 16.9801 8.17596C17.022 8.40741 17.2388 8.56872 17.4861 8.56872C17.5166 8.56872 17.5432 8.56521 17.5736 8.56171C17.8514 8.52313 18.0416 8.27766 17.9921 8.02166Z" fill="#00B2FF"/>
</svg>
